<svg width="69" height="69" viewBox="0 0 69 69" fill="none" xmlns="http://www.w3.org/2000/svg">
<circle cx="34.5" cy="34.5" r="34.5" fill="white"/>
<mask id="mask0_1503_1006" style="mask-type:alpha" maskUnits="userSpaceOnUse" x="0" y="0" width="69" height="69">
<circle cx="34.5" cy="34.5" r="34.5" fill="#FFB624"/>
</mask>
<g mask="url(#mask0_1503_1006)">
<circle cx="34" cy="24" r="18" fill="#043825"/>
<path d="M16 63C16 53.0589 24.0589 45 34 45C43.9411 45 52 53.0589 52 63V81H16V63Z" fill="#043825"/>
</g>
<path d="M34.874 16.698C36.4433 16.698 37.6973 17.1087 38.636 17.93C39.5893 18.7513 40.066 19.91 40.066 21.406C40.066 22.7847 39.6113 23.8627 38.702 24.64C37.8073 25.4027 36.6193 25.7913 35.138 25.806L35.028 27.456H31.728L31.618 23.364H32.938C34.0673 23.364 34.9253 23.2247 35.512 22.946C36.1133 22.6673 36.414 22.1613 36.414 21.428C36.414 20.9147 36.2747 20.5113 35.996 20.218C35.7173 19.9247 35.3287 19.778 34.83 19.778C34.302 19.778 33.8913 19.932 33.598 20.24C33.3047 20.5333 33.158 20.9367 33.158 21.45H29.616C29.5867 20.5553 29.77 19.7487 30.166 19.03C30.5767 18.3113 31.178 17.7467 31.97 17.336C32.7767 16.9107 33.7447 16.698 34.874 16.698ZM33.422 33.176C32.762 33.176 32.2193 32.9853 31.794 32.604C31.3833 32.208 31.178 31.724 31.178 31.152C31.178 30.5653 31.3833 30.074 31.794 29.678C32.2193 29.282 32.762 29.084 33.422 29.084C34.0673 29.084 34.5953 29.282 35.006 29.678C35.4313 30.074 35.644 30.5653 35.644 31.152C35.644 31.724 35.4313 32.208 35.006 32.604C34.5953 32.9853 34.0673 33.176 33.422 33.176Z" fill="#FFB624"/>
</svg>
